<svg width="520" height="520" viewBox="0 0 520 520" fill="none" xmlns="http://www.w3.org/2000/svg">
<rect width="520" height="520" fill="url(#paint0_radial_1_3)"/>
<path d="M152.88 323.74C150.453 325.3 147.767 326.08 144.82 326.08C140.833 326.08 137.367 324.693 134.42 321.92C131.647 318.973 130.26 315.507 130.26 311.52C130.26 309.267 130.867 307.1 132.08 305.02C133.293 302.767 134.767 301.033 136.5 299.82L192.92 262.12L136.5 224.42C134.767 223.207 133.293 221.56 132.08 219.48C130.867 217.227 130.26 214.973 130.26 212.72C130.26 208.733 131.647 205.353 134.42 202.58C137.367 199.633 140.833 198.16 144.82 198.16C147.94 198.16 150.627 198.94 152.88 200.5L226.98 250.16C229.233 251.72 230.967 253.627 232.18 255.88C233.393 257.96 234 259.953 234 261.86C234 266.887 231.66 270.96 226.98 274.08L152.88 323.74Z" fill="white"/>
<path d="M365.82 302.82C369.46 302.82 372.58 304.12 375.18 306.72C377.953 309.32 379.34 312.44 379.34 316.08C379.34 319.72 377.953 322.84 375.18 325.44C372.58 328.04 369.46 329.34 365.82 329.34H284.18C280.54 329.34 277.333 328.04 274.56 325.44C271.96 322.84 270.66 319.72 270.66 316.08C270.66 312.44 271.96 309.32 274.56 306.72C277.333 304.12 280.54 302.82 284.18 302.82H365.82Z" fill="white"/>
<defs>
<radialGradient id="paint0_radial_1_3" cx="0" cy="0" r="1" gradientUnits="userSpaceOnUse" gradientTransform="translate(260 260) rotate(90) scale(323)">
<stop stop-color="#060606"/>
<stop offset="1" stop-color="#1A1A1A"/>
</radialGradient>
</defs>
</svg>
